<svg width="57" height="56" viewBox="0 0 57 56" fill="none" xmlns="http://www.w3.org/2000/svg">
<rect x="4.5" y="4" width="48" height="48" rx="24" fill="#F4EBFF"/>
<rect x="4.5" y="4" width="48" height="48" rx="24" stroke="#F9F5FF" stroke-width="8"/>
<path d="M22.5944 27.2288C22.5322 26.8282 22.5 26.4179 22.5 26C22.5 21.5817 26.1052 18 30.5526 18C34.9999 18 38.6052 21.5817 38.6052 26C38.6052 26.9981 38.4213 27.9535 38.0852 28.8345C38.0154 29.0175 37.9804 29.109 37.9646 29.1804C37.9489 29.2512 37.9428 29.301 37.9411 29.3735C37.9394 29.4466 37.9493 29.5272 37.9692 29.6883L38.3717 32.9585C38.4153 33.3125 38.4371 33.4895 38.3782 33.6182C38.3266 33.731 38.235 33.8205 38.1211 33.8695C37.9911 33.9254 37.8146 33.8995 37.4617 33.8478L34.2765 33.3809C34.1101 33.3565 34.027 33.3443 33.9512 33.3448C33.8763 33.3452 33.8245 33.3507 33.7511 33.3661C33.677 33.3817 33.5823 33.4172 33.393 33.4881C32.5097 33.819 31.5524 34 30.5526 34C30.1344 34 29.7237 33.9683 29.3227 33.9073M24.1316 38C27.0965 38 29.5 35.5376 29.5 32.5C29.5 29.4624 27.0965 27 24.1316 27C21.1667 27 18.7632 29.4624 18.7632 32.5C18.7632 33.1106 18.8603 33.6979 19.0395 34.2467C19.1153 34.4787 19.1532 34.5947 19.1657 34.6739C19.1786 34.7567 19.1809 34.8031 19.1761 34.8867C19.1714 34.9668 19.1514 35.0573 19.1113 35.2383L18.5 38L21.4948 37.591C21.6583 37.5687 21.74 37.5575 21.8114 37.558C21.8865 37.5585 21.9264 37.5626 22.0001 37.5773C22.0701 37.5912 22.1742 37.6279 22.3823 37.7014C22.9306 37.8949 23.5191 38 24.1316 38Z" stroke="#7F56D9" stroke-width="2" stroke-linecap="round" stroke-linejoin="round"/>
</svg>
