<svg width="57" height="56" viewBox="0 0 57 56" fill="none" xmlns="http://www.w3.org/2000/svg">
<rect x="4.5" y="4" width="48" height="48" rx="24" fill="#F4EBFF"/>
<rect x="4.5" y="4" width="48" height="48" rx="24" stroke="#F9F5FF" stroke-width="8"/>
<path d="M27.5 19H24.3C22.6198 19 21.7798 19 21.138 19.327C20.5735 19.6146 20.1146 20.0735 19.827 20.638C19.5 21.2798 19.5 22.1198 19.5 23.8V32.2C19.5 33.8802 19.5 34.7202 19.827 35.362C20.1146 35.9265 20.5735 36.3854 21.138 36.673C21.7798 37 22.6198 37 24.3 37H32.7C34.3802 37 35.2202 37 35.862 36.673C36.4265 36.3854 36.8854 35.9265 37.173 35.362C37.5 34.7202 37.5 33.8802 37.5 32.2V29M28.5 24H32.5V28M32 19.5V18M35.9393 20.5607L37 19.5M37.0103 24.5H38.5103M19.5 29.3471C20.1519 29.4478 20.8199 29.5 21.5 29.5C25.8864 29.5 29.7653 27.3276 32.1197 24" stroke="#7F56D9" stroke-width="2" stroke-linecap="round" stroke-linejoin="round"/>
</svg>
