<svg width="53" height="52" viewBox="0 0 53 52" fill="none" xmlns="http://www.w3.org/2000/svg">
<g filter="url(#filter0_d_66_2050)">
<rect x="2.5" y="1" width="48" height="48" rx="10" fill="white" shape-rendering="crispEdges"/>
<rect x="3" y="1.5" width="47" height="47" rx="9.5" stroke="#E4E7EC" shape-rendering="crispEdges"/>
<path d="M27.5 15L18.5935 25.6879C18.2446 26.1064 18.0702 26.3157 18.0676 26.4925C18.0653 26.6461 18.1337 26.7923 18.2533 26.8889C18.3907 27 18.6632 27 19.208 27H26.5L25.5 35L34.4065 24.3121C34.7554 23.8936 34.9298 23.6843 34.9324 23.5075C34.9347 23.3539 34.8663 23.2077 34.7467 23.1111C34.6093 23 34.3368 23 33.792 23H26.5L27.5 15Z" stroke="#344054" stroke-width="2" stroke-linecap="round" stroke-linejoin="round"/>
</g>
<defs>
<filter id="filter0_d_66_2050" x="0.5" y="0" width="52" height="52" filterUnits="userSpaceOnUse" color-interpolation-filters="sRGB">
<feFlood flood-opacity="0" result="BackgroundImageFix"/>
<feColorMatrix in="SourceAlpha" type="matrix" values="0 0 0 0 0 0 0 0 0 0 0 0 0 0 0 0 0 0 127 0" result="hardAlpha"/>
<feOffset dy="1"/>
<feGaussianBlur stdDeviation="1"/>
<feComposite in2="hardAlpha" operator="out"/>
<feColorMatrix type="matrix" values="0 0 0 0 0.0627451 0 0 0 0 0.0941176 0 0 0 0 0.156863 0 0 0 0.05 0"/>
<feBlend mode="normal" in2="BackgroundImageFix" result="effect1_dropShadow_66_2050"/>
<feBlend mode="normal" in="SourceGraphic" in2="effect1_dropShadow_66_2050" result="shape"/>
</filter>
</defs>
</svg>
