<svg width="148" height="48" viewBox="0 0 148 48" fill="none" xmlns="http://www.w3.org/2000/svg">
<path d="M20.5 4L24.7861 13.6525L34.6421 9.85786L30.8475 19.7139L40.5 24L30.8475 28.2861L34.6421 38.1421L24.7861 34.3475L20.5 44L16.2139 34.3475L6.35786 38.1421L10.1525 28.2861L0.5 24L10.1525 19.7139L6.35786 9.85786L16.2139 13.6525L20.5 4Z" fill="#0C111D"/>
<path d="M67.7662 16.844C68.2142 17.292 68.7742 17.516 69.4462 17.516C70.1182 17.516 70.6689 17.292 71.0982 16.844C71.5275 16.3773 71.7422 15.8173 71.7422 15.164C71.7422 14.492 71.5275 13.932 71.0982 13.484C70.6689 13.036 70.1182 12.812 69.4462 12.812C68.7742 12.812 68.2142 13.036 67.7662 13.484C67.3369 13.932 67.1222 14.492 67.1222 15.164C67.1222 15.8173 67.3369 16.3773 67.7662 16.844Z" fill="#0C111D"/>
<path d="M52.896 23.2725L60.456 33H65.916L57.6381 22.6398L65.636 13.232H60.204L52.896 22.1494V13.232H48.5V33H52.896V23.2725Z" fill="#0C111D"/>
<path d="M78.539 23.592C78.1656 24.04 77.979 24.656 77.979 25.44V33H73.695V25.356C73.695 24.1053 73.9656 23.0133 74.507 22.08C75.067 21.128 75.8323 20.3907 76.803 19.868C77.7923 19.3453 78.931 19.084 80.219 19.084C81.5256 19.084 82.6643 19.3453 83.635 19.868C84.6056 20.3907 85.3616 21.1187 85.903 22.052C86.4443 22.9853 86.715 24.0867 86.715 25.356V33H82.431V25.44C82.431 24.656 82.235 24.04 81.843 23.592C81.4696 23.1253 80.9283 22.892 80.219 22.892C79.491 22.892 78.931 23.1253 78.539 23.592Z" fill="#0C111D"/>
<path d="M93.1541 32.664C93.9754 33.0933 94.9274 33.308 96.0101 33.308C97.0554 33.308 97.9048 33.1493 98.5581 32.832C99.2114 32.5147 99.7994 32.0573 100.322 31.46L97.7181 28.828C97.5314 29.0333 97.3168 29.192 97.0741 29.304C96.8501 29.3973 96.5794 29.444 96.2621 29.444C95.8888 29.444 95.5621 29.3227 95.2821 29.08C95.0208 28.8373 94.8901 28.4733 94.8901 27.988V23.06H99.3421V19.392H94.8901V13.764H90.6061V19.392H87.5821V23.06H90.6061V27.96C90.6061 29.0613 90.8301 30.0133 91.2781 30.816C91.7261 31.6187 92.3514 32.2347 93.1541 32.664Z" fill="#0C111D"/>
<path d="M106.523 33.336C105.721 33.336 104.927 33.2333 104.143 33.028C103.378 32.8227 102.659 32.5333 101.987 32.16C101.334 31.768 100.774 31.32 100.307 30.816L102.743 28.352C103.191 28.8373 103.723 29.22 104.339 29.5C104.955 29.7613 105.627 29.892 106.355 29.892C106.859 29.892 107.242 29.8173 107.503 29.668C107.783 29.5187 107.923 29.3133 107.923 29.052C107.923 28.716 107.755 28.464 107.419 28.296C107.102 28.1093 106.691 27.9507 106.187 27.82C105.683 27.6707 105.151 27.512 104.591 27.344C104.031 27.176 103.499 26.9427 102.995 26.644C102.491 26.3453 102.081 25.9347 101.763 25.412C101.446 24.8707 101.287 24.1893 101.287 23.368C101.287 22.4907 101.511 21.7347 101.959 21.1C102.407 20.4467 103.042 19.9333 103.863 19.56C104.685 19.1867 105.646 19 106.747 19C107.905 19 108.969 19.2053 109.939 19.616C110.929 20.008 111.731 20.596 112.347 21.38L109.911 23.844C109.482 23.34 108.997 22.9853 108.455 22.78C107.933 22.5747 107.419 22.472 106.915 22.472C106.43 22.472 106.066 22.5467 105.823 22.696C105.581 22.8267 105.459 23.0227 105.459 23.284C105.459 23.564 105.618 23.788 105.935 23.956C106.253 24.124 106.663 24.2733 107.167 24.404C107.671 24.5347 108.203 24.6933 108.763 24.88C109.323 25.0667 109.855 25.3187 110.359 25.636C110.863 25.9533 111.274 26.3827 111.591 26.924C111.909 27.4467 112.067 28.1373 112.067 28.996C112.067 30.3213 111.563 31.376 110.555 32.16C109.566 32.944 108.222 33.336 106.523 33.336Z" fill="#0C111D"/>
<path d="M116.547 32.552C117.518 33.056 118.629 33.308 119.879 33.308C121.13 33.308 122.231 33.056 123.183 32.552C124.135 32.0293 124.882 31.32 125.423 30.424C125.965 29.5093 126.235 28.4547 126.235 27.26V19.392H121.951V27.232C121.951 27.9413 121.765 28.5013 121.391 28.912C121.018 29.304 120.514 29.5 119.879 29.5C119.431 29.5 119.049 29.4067 118.731 29.22C118.414 29.0333 118.171 28.772 118.003 28.436C117.854 28.1 117.779 27.6987 117.779 27.232V19.392H113.495V27.288C113.495 28.464 113.766 29.5093 114.307 30.424C114.849 31.32 115.595 32.0293 116.547 32.552Z" fill="#0C111D"/>
<path fill-rule="evenodd" clip-rule="evenodd" d="M133.741 39.048C132.491 39.048 131.361 38.824 130.353 38.376C129.364 37.928 128.58 37.3027 128.001 36.5C127.441 35.716 127.161 34.8107 127.161 33.784C127.161 32.9627 127.273 32.2907 127.497 31.768C127.74 31.2453 128.104 30.732 128.589 30.228L131.641 32.188C131.473 32.3747 131.343 32.5707 131.249 32.776C131.156 32.9813 131.109 33.224 131.109 33.504C131.109 34.064 131.343 34.512 131.809 34.848C132.276 35.184 132.929 35.352 133.769 35.352C134.665 35.352 135.356 35.1373 135.841 34.708C136.327 34.2973 136.569 33.7093 136.569 32.944C136.569 32.44 136.448 32.0013 136.205 31.628C135.963 31.236 135.617 30.9373 135.169 30.732C134.74 30.508 134.245 30.396 133.685 30.396C132.621 30.396 131.66 30.1533 130.801 29.668C129.961 29.164 129.289 28.492 128.785 27.652C128.3 26.7933 128.057 25.832 128.057 24.768C128.057 23.6667 128.309 22.696 128.813 21.856C129.336 20.9973 130.036 20.3253 130.913 19.84C131.809 19.3547 132.808 19.112 133.909 19.112C134.854 19.112 135.717 19.2907 136.497 19.648L138.753 17.432L141.217 19.896L139.126 21.9875C139.549 22.7302 139.761 23.5637 139.761 24.488C139.761 25.5147 139.509 26.42 139.005 27.204C138.691 27.7119 138.298 28.1493 137.827 28.5162C138.556 28.984 139.145 29.5732 139.593 30.284C140.135 31.1427 140.405 32.1227 140.405 33.224C140.405 34.3627 140.125 35.3707 139.565 36.248C139.005 37.1253 138.231 37.8067 137.241 38.292C136.252 38.796 135.085 39.048 133.741 39.048ZM133.909 26.868C134.339 26.868 134.712 26.784 135.029 26.616C135.347 26.4293 135.599 26.1773 135.785 25.86C135.972 25.5427 136.065 25.1787 136.065 24.768C136.065 24.3573 135.972 23.9933 135.785 23.676C135.617 23.3587 135.365 23.116 135.029 22.948C134.712 22.7613 134.339 22.668 133.909 22.668C133.48 22.668 133.107 22.7613 132.789 22.948C132.472 23.116 132.22 23.3587 132.033 23.676C131.847 23.9933 131.753 24.3573 131.753 24.768C131.753 25.1787 131.847 25.5427 132.033 25.86C132.22 26.1773 132.472 26.4293 132.789 26.616C133.125 26.784 133.499 26.868 133.909 26.868Z" fill="#0C111D"/>
<path d="M142.828 16.844C143.276 17.292 143.836 17.516 144.508 17.516C145.18 17.516 145.731 17.292 146.16 16.844C146.589 16.3773 146.804 15.8173 146.804 15.164C146.804 14.492 146.589 13.932 146.16 13.484C145.731 13.036 145.18 12.812 144.508 12.812C143.836 12.812 143.276 13.036 142.828 13.484C142.399 13.932 142.184 14.492 142.184 15.164C142.184 15.8173 142.399 16.3773 142.828 16.844Z" fill="#0C111D"/>
<path d="M67.2902 19.392V33H71.5742V19.392H67.2902Z" fill="#0C111D"/>
<path d="M142.352 19.392V33H146.636V19.392H142.352Z" fill="#0C111D"/>
</svg>
