<svg width="182" height="48" viewBox="0 0 182 48" fill="none" xmlns="http://www.w3.org/2000/svg">
<path fill-rule="evenodd" clip-rule="evenodd" d="M16.6746 28.4933L21.2434 33.0621C24.0238 35.8425 28.5316 35.8425 31.312 33.0621C32.2289 32.1452 32.8435 31.0403 33.1556 29.8715L36.3462 33.0621C39.1266 35.8425 43.6344 35.8425 46.4147 33.0621C49.1951 30.2818 49.1951 25.774 46.4147 22.9936L36.3462 12.9251C33.5659 10.1448 29.058 10.1448 26.2777 12.9251C25.3607 13.8421 24.7462 14.9469 24.4341 16.1157L21.2434 12.9251C18.4631 10.1448 13.9553 10.1448 11.1749 12.9251L2.88936 21.2107C-0.296453 24.3965 -0.296453 29.5617 2.88936 32.7475C6.07517 35.9333 11.2404 35.9333 14.4262 32.7475C15.6322 31.5415 16.3817 30.0519 16.6746 28.4933ZM18.7263 15.4422C17.3361 14.0521 15.0822 14.0521 13.692 15.4422C12.3025 16.8318 12.3019 19.0844 13.6903 20.4747L23.7606 30.545C25.1507 31.9352 27.4047 31.9352 28.7948 30.545C30.1843 29.1556 30.185 26.9033 28.797 25.513L18.7263 15.4422ZM11.9091 23.7278L8.65778 20.4765L5.40649 23.7278C3.61085 25.5234 3.61085 28.4347 5.40649 30.2304C7.20213 32.026 10.1134 32.026 11.9091 30.2304C13.7047 28.4347 13.7047 25.5234 11.9091 23.7278ZM28.7919 20.4735C27.4047 19.0831 27.4056 16.8314 28.7948 15.4422C30.185 14.0521 32.4389 14.0521 33.8291 15.4422L43.8976 25.5108C45.2878 26.9009 45.2878 29.1548 43.8976 30.545C42.5074 31.9352 40.2535 31.9352 38.8634 30.545L28.7919 20.4735Z" fill="#DD2590"/>
<path d="M61.053 32.9998H56.5V11.5398H61.053L67.433 25.5478L73.842 11.5398H78.453V32.9998H73.9V28.5048C73.9 23.8648 73.9 22.8498 74.132 21.2548L69.579 30.9998H65.287L60.763 21.2548C61.024 22.8498 61.053 24.6478 61.053 26.9968V32.9998Z" fill="#0C111D"/>
<path d="M86.7509 33.3768C83.6769 33.3768 81.7629 31.5788 81.7629 28.7368C81.7629 26.0688 83.6479 24.4158 87.1279 24.1548L91.1879 23.8358V23.6038C91.1879 22.1828 90.3179 21.4288 88.7229 21.4288C86.8379 21.4288 85.8229 22.1538 85.8229 23.4588H82.1109C82.1109 20.1818 84.8079 18.0358 88.9549 18.0358C93.1599 18.0358 95.5379 20.3848 95.5379 24.5318V32.9998H91.5939L91.3039 31.0858C90.8399 32.4198 88.9258 33.3768 86.7509 33.3768ZM88.3169 30.0708C90.0279 30.0708 91.2169 29.2298 91.2169 27.5768V26.7938L88.9549 26.9968C87.0119 27.1708 86.3159 27.6058 86.3159 28.5338C86.3159 29.5778 86.9539 30.0708 88.3169 30.0708Z" fill="#0C111D"/>
<path d="M98.016 25.4888C98.016 21.0808 100.887 18.0068 104.976 18.0068C106.948 18.0068 108.514 18.7608 109.297 19.9498L109.529 18.4998H113.734V32.0718C113.734 37.2628 110.747 40.3948 105.788 40.3948C101.351 40.3948 98.364 37.8718 97.958 33.7538H102.482C102.569 35.3778 103.787 36.3348 105.759 36.3348C107.905 36.3348 109.268 35.0588 109.268 32.9998V31.1148C108.398 32.1588 106.774 32.8258 104.889 32.8258C100.829 32.8258 98.016 29.8388 98.016 25.4888ZM102.511 25.3728C102.511 27.4608 103.903 28.9398 105.875 28.9398C107.905 28.9398 109.268 27.5188 109.268 25.3728C109.268 23.2558 107.905 21.8928 105.846 21.8928C103.874 21.8928 102.511 23.3138 102.511 25.3728Z" fill="#0C111D"/>
<path d="M121.559 32.9998H117.093V18.4998H121.298L121.588 20.0078C122.487 18.7608 124.14 18.0358 126.025 18.0358C129.476 18.0358 131.477 20.2398 131.477 24.0388V32.9998H127.011V25.1118C127.011 23.2848 125.996 22.0958 124.459 22.0958C122.69 22.0958 121.559 23.2558 121.559 25.0538V32.9998Z" fill="#0C111D"/>
<path d="M133.896 25.7208C133.896 21.1388 137.26 18.0648 141.9 18.0648C146.511 18.0648 149.875 21.1388 149.875 25.7208C149.875 30.3028 146.511 33.3478 141.9 33.3478C137.26 33.3478 133.896 30.3028 133.896 25.7208ZM138.391 25.6918C138.391 27.8958 139.812 29.3458 141.9 29.3458C143.959 29.3458 145.38 27.8958 145.38 25.6918C145.38 23.5168 143.959 22.0668 141.9 22.0668C139.812 22.0668 138.391 23.5168 138.391 25.6918Z" fill="#0C111D"/>
<path d="M156.931 32.9998H152.465V11.1338H156.931V32.9998Z" fill="#0C111D"/>
<path d="M162.485 16.2378C161.064 16.2378 159.933 15.1068 159.933 13.6858C159.933 12.2648 161.064 11.1628 162.485 11.1628C163.877 11.1628 165.008 12.2648 165.008 13.6858C165.008 15.1068 163.877 16.2378 162.485 16.2378ZM160.281 32.9998V18.4998H164.747V32.9998H160.281Z" fill="#0C111D"/>
<path d="M172.476 33.3768C169.402 33.3768 167.488 31.5788 167.488 28.7368C167.488 26.0688 169.373 24.4158 172.853 24.1548L176.913 23.8358V23.6038C176.913 22.1828 176.043 21.4288 174.448 21.4288C172.563 21.4288 171.548 22.1538 171.548 23.4588H167.836C167.836 20.1818 170.533 18.0358 174.68 18.0358C178.885 18.0358 181.263 20.3848 181.263 24.5318V32.9998H177.319L177.029 31.0858C176.565 32.4198 174.651 33.3768 172.476 33.3768ZM174.042 30.0708C175.753 30.0708 176.942 29.2298 176.942 27.5768V26.7938L174.68 26.9968C172.737 27.1708 172.041 27.6058 172.041 28.5338C172.041 29.5778 172.679 30.0708 174.042 30.0708Z" fill="#0C111D"/>
</svg>
