<svg width="53" height="52" viewBox="0 0 53 52" fill="none" xmlns="http://www.w3.org/2000/svg">
<g filter="url(#filter0_d_66_2058)">
<rect x="2.5" y="1" width="48" height="48" rx="10" fill="white" shape-rendering="crispEdges"/>
<rect x="3" y="1.5" width="47" height="47" rx="9.5" stroke="#E4E7EC" shape-rendering="crispEdges"/>
<path d="M25.5 16H22.3C20.6198 16 19.7798 16 19.138 16.327C18.5735 16.6146 18.1146 17.0735 17.827 17.638C17.5 18.2798 17.5 19.1198 17.5 20.8V29.2C17.5 30.8802 17.5 31.7202 17.827 32.362C18.1146 32.9265 18.5735 33.3854 19.138 33.673C19.7798 34 20.6198 34 22.3 34H30.7C32.3802 34 33.2202 34 33.862 33.673C34.4265 33.3854 34.8854 32.9265 35.173 32.362C35.5 31.7202 35.5 30.8802 35.5 29.2V26M26.5 21H30.5V25M30 16.5V15M33.9393 17.5607L35 16.5M35.0103 21.5H36.5103M17.5 26.3471C18.1519 26.4478 18.8199 26.5 19.5 26.5C23.8864 26.5 27.7653 24.3276 30.1197 21" stroke="#344054" stroke-width="2" stroke-linecap="round" stroke-linejoin="round"/>
</g>
<defs>
<filter id="filter0_d_66_2058" x="0.5" y="0" width="52" height="52" filterUnits="userSpaceOnUse" color-interpolation-filters="sRGB">
<feFlood flood-opacity="0" result="BackgroundImageFix"/>
<feColorMatrix in="SourceAlpha" type="matrix" values="0 0 0 0 0 0 0 0 0 0 0 0 0 0 0 0 0 0 127 0" result="hardAlpha"/>
<feOffset dy="1"/>
<feGaussianBlur stdDeviation="1"/>
<feComposite in2="hardAlpha" operator="out"/>
<feColorMatrix type="matrix" values="0 0 0 0 0.0627451 0 0 0 0 0.0941176 0 0 0 0 0.156863 0 0 0 0.05 0"/>
<feBlend mode="normal" in2="BackgroundImageFix" result="effect1_dropShadow_66_2058"/>
<feBlend mode="normal" in="SourceGraphic" in2="effect1_dropShadow_66_2058" result="shape"/>
</filter>
</defs>
</svg>
