<svg width="191" height="48" viewBox="0 0 191 48" fill="none" xmlns="http://www.w3.org/2000/svg">
<rect x="0.5" y="4" width="10" height="10" fill="#155EEF"/>
<rect opacity="0.6" x="20.5" y="4" width="10" height="10" fill="#155EEF"/>
<rect opacity="0.6" x="10.5" y="14" width="10" height="10" fill="#155EEF"/>
<rect opacity="0.45" x="20.5" y="14" width="10" height="10" fill="#155EEF"/>
<rect opacity="0.3" x="30.5" y="14" width="10" height="10" fill="#155EEF"/>
<rect opacity="0.6" x="0.5" y="24" width="10" height="10" fill="#155EEF"/>
<rect opacity="0.45" x="10.5" y="24" width="10" height="10" fill="#155EEF"/>
<rect opacity="0.3" x="20.5" y="24" width="10" height="10" fill="#155EEF"/>
<rect opacity="0.15" x="30.5" y="24" width="10" height="10" fill="#155EEF"/>
<rect opacity="0.3" x="10.5" y="34" width="10" height="10" fill="#155EEF"/>
<rect opacity="0.15" x="20.5" y="34" width="10" height="10" fill="#155EEF"/>
<path d="M70.42 23.2201C70.42 25.9801 69.53 28.3501 67.75 30.3301C65.99 32.3101 63.53 33.3001 60.37 33.3001C57.19 33.3001 54.75 32.3101 53.05 30.3301C51.35 28.3501 50.5 26.0001 50.5 23.2801C50.5 20.4401 51.4 18.0501 53.2 16.1101C55 14.1701 57.43 13.2001 60.49 13.2001C63.61 13.2001 66.04 14.1901 67.78 16.1701C69.54 18.1301 70.42 20.4801 70.42 23.2201ZM66.07 23.3401C66.07 21.2601 65.59 19.6401 64.63 18.4801C63.67 17.3201 62.28 16.7401 60.46 16.7401C58.52 16.7401 57.1 17.3601 56.2 18.6001C55.3 19.8201 54.85 21.3501 54.85 23.1901C54.85 24.9701 55.29 26.5101 56.17 27.8101C57.05 29.1101 58.52 29.7601 60.58 29.7601C62.48 29.7601 63.87 29.1701 64.75 27.9901C65.63 26.7901 66.07 25.2401 66.07 23.3401Z" fill="#0C111D"/>
<path d="M87.2174 33.0001H81.5474V30.4801C81.1674 31.2601 80.6074 31.9301 79.8674 32.4901C79.1274 33.0301 78.1474 33.3001 76.9274 33.3001C75.1474 33.3001 73.7474 32.6901 72.7274 31.4701C71.7074 30.2501 71.1974 28.5901 71.1974 26.4901C71.1974 24.4701 71.6974 22.7501 72.6974 21.3301C73.6974 19.9101 75.2074 19.2001 77.2274 19.2001C78.3274 19.2001 79.2274 19.4201 79.9274 19.8601C80.6274 20.3001 81.1674 20.8601 81.5474 21.5401V15.3001H78.8474V12.3601H85.4174V30.0901H87.2174V33.0001ZM81.5474 26.1601V25.8301C81.5474 24.7101 81.2474 23.8401 80.6474 23.2201C80.0674 22.5801 79.3374 22.2601 78.4574 22.2601C77.5974 22.2601 76.8374 22.5801 76.1774 23.2201C75.5374 23.8601 75.2174 24.8701 75.2174 26.2501C75.2174 27.5501 75.5174 28.5401 76.1174 29.2201C76.7174 29.9001 77.4274 30.2401 78.2474 30.2401C79.2674 30.2401 80.0674 29.8101 80.6474 28.9501C81.2474 28.0901 81.5474 27.1601 81.5474 26.1601Z" fill="#0C111D"/>
<path d="M100.937 28.7401C100.837 29.9401 100.247 31.0001 99.1668 31.9201C98.0868 32.8401 96.5768 33.3001 94.6368 33.3001C92.6168 33.3001 90.9468 32.7301 89.6268 31.5901C88.3268 30.4501 87.6768 28.7501 87.6768 26.4901C87.6768 24.4101 88.2668 22.6801 89.4468 21.3001C90.6468 19.9001 92.3168 19.2001 94.4568 19.2001C96.3368 19.2001 97.8568 19.7401 99.0168 20.8201C100.197 21.9001 100.797 23.3201 100.817 25.0801C100.817 25.7401 100.747 26.3901 100.607 27.0301H91.7268C91.9468 29.1701 93.0068 30.2401 94.9068 30.2401C95.9468 30.2401 96.6468 29.9901 97.0068 29.4901C97.3868 28.9901 97.6168 28.5401 97.6968 28.1401L100.937 28.7401ZM96.8268 24.7801C96.9068 24.1001 96.7568 23.4601 96.3768 22.8601C96.0168 22.2601 95.3768 21.9601 94.4568 21.9601C93.6568 21.9601 93.0368 22.2201 92.5968 22.7401C92.1568 23.2601 91.8768 23.9401 91.7568 24.7801H96.8268Z" fill="#0C111D"/>
<path d="M102.989 20.4301C104.169 19.9501 105.149 19.6301 105.929 19.4701C106.729 19.2901 107.679 19.2001 108.779 19.2001C110.239 19.2001 111.499 19.5801 112.559 20.3401C113.619 21.1001 114.149 22.2501 114.149 23.7901V29.6701C114.149 30.3701 114.459 30.7201 115.079 30.7201C115.259 30.7201 115.449 30.6901 115.649 30.6301L115.679 32.6701C114.899 33.0901 114.089 33.3001 113.249 33.3001C111.469 33.3001 110.479 32.4101 110.279 30.6301V30.6001C109.899 31.2801 109.349 31.9001 108.629 32.4601C107.929 33.0201 107.029 33.3001 105.929 33.3001C104.949 33.3001 104.009 33.0101 103.109 32.4301C102.209 31.8501 101.759 30.8501 101.759 29.4301C101.759 27.7701 102.419 26.6701 103.739 26.1301C105.079 25.5901 106.519 25.3201 108.059 25.3201C108.919 25.3201 109.659 25.3601 110.279 25.4401V24.9901C110.279 24.2901 110.179 23.6101 109.979 22.9501C109.799 22.2901 109.159 21.9601 108.059 21.9601C107.659 21.9601 107.289 21.9901 106.949 22.0501C106.629 22.0901 106.309 22.1901 105.989 22.3501L105.479 24.2701L102.389 23.9401L102.989 20.4301ZM110.279 27.4801V27.3001C109.959 27.2601 109.629 27.2201 109.289 27.1801C108.969 27.1401 108.649 27.1201 108.329 27.1201C107.649 27.1201 107.049 27.2501 106.529 27.5101C106.009 27.7501 105.749 28.2401 105.749 28.9801C105.749 29.4201 105.869 29.7901 106.109 30.0901C106.349 30.3901 106.759 30.5401 107.339 30.5401C108.019 30.5401 108.649 30.3001 109.229 29.8201C109.829 29.3201 110.179 28.5401 110.279 27.4801Z" fill="#0C111D"/>
<path d="M130.615 26.2501C130.615 28.3901 129.915 30.1001 128.515 31.3801C127.115 32.6601 125.335 33.3001 123.175 33.3001C121.095 33.3001 119.395 32.7001 118.075 31.5001C116.775 30.2801 116.125 28.5801 116.125 26.4001C116.125 24.4201 116.725 22.7201 117.925 21.3001C119.125 19.8801 120.945 19.1701 123.385 19.1701C125.825 19.1701 127.635 19.8801 128.815 21.3001C130.015 22.7001 130.615 24.3501 130.615 26.2501ZM126.625 26.1301C126.625 24.7501 126.305 23.7401 125.665 23.1001C125.025 22.4601 124.245 22.1401 123.325 22.1401C122.325 22.1401 121.535 22.5001 120.955 23.2201C120.395 23.9201 120.115 24.9101 120.115 26.1901C120.115 27.3501 120.375 28.3301 120.895 29.1301C121.435 29.9301 122.235 30.3301 123.295 30.3301C124.295 30.3301 125.095 29.9601 125.695 29.2201C126.315 28.4601 126.625 27.4301 126.625 26.1301Z" fill="#0C111D"/>
<path d="M145.793 33.0001H131.153V29.5801H133.253V16.9201H131.153V13.5001H140.003V16.9201H137.273V29.5801H142.373L142.973 25.8001L146.393 26.1001L145.793 33.0001Z" fill="#0C111D"/>
<path d="M148.152 20.4301C149.332 19.9501 150.312 19.6301 151.092 19.4701C151.892 19.2901 152.842 19.2001 153.942 19.2001C155.402 19.2001 156.662 19.5801 157.722 20.3401C158.782 21.1001 159.312 22.2501 159.312 23.7901V29.6701C159.312 30.3701 159.622 30.7201 160.242 30.7201C160.422 30.7201 160.612 30.6901 160.812 30.6301L160.842 32.6701C160.062 33.0901 159.252 33.3001 158.412 33.3001C156.632 33.3001 155.642 32.4101 155.442 30.6301V30.6001C155.062 31.2801 154.512 31.9001 153.792 32.4601C153.092 33.0201 152.192 33.3001 151.092 33.3001C150.112 33.3001 149.172 33.0101 148.272 32.4301C147.372 31.8501 146.922 30.8501 146.922 29.4301C146.922 27.7701 147.582 26.6701 148.902 26.1301C150.242 25.5901 151.682 25.3201 153.222 25.3201C154.082 25.3201 154.822 25.3601 155.442 25.4401V24.9901C155.442 24.2901 155.342 23.6101 155.142 22.9501C154.962 22.2901 154.322 21.9601 153.222 21.9601C152.822 21.9601 152.452 21.9901 152.112 22.0501C151.792 22.0901 151.472 22.1901 151.152 22.3501L150.642 24.2701L147.552 23.9401L148.152 20.4301ZM155.442 27.4801V27.3001C155.122 27.2601 154.792 27.2201 154.452 27.1801C154.132 27.1401 153.812 27.1201 153.492 27.1201C152.812 27.1201 152.212 27.2501 151.692 27.5101C151.172 27.7501 150.912 28.2401 150.912 28.9801C150.912 29.4201 151.032 29.7901 151.272 30.0901C151.512 30.3901 151.922 30.5401 152.502 30.5401C153.182 30.5401 153.812 30.3001 154.392 29.8201C154.992 29.3201 155.342 28.5401 155.442 27.4801Z" fill="#0C111D"/>
<path d="M176.587 25.9201C176.587 27.9201 176.057 29.6501 174.997 31.1101C173.957 32.5701 172.417 33.3001 170.377 33.3001C168.317 33.3001 166.867 32.5201 166.027 30.9601C165.987 31.3001 165.937 31.6401 165.877 31.9801C165.837 32.3201 165.787 32.6601 165.727 33.0001H161.857C161.997 32.3001 162.117 31.6001 162.217 30.9001C162.317 30.2001 162.367 29.5101 162.367 28.8301V15.3001H160.567V12.3601H166.237V22.0501C166.597 21.2701 167.137 20.6001 167.857 20.0401C168.597 19.4801 169.577 19.2001 170.797 19.2001C172.497 19.2001 173.887 19.7901 174.967 20.9701C176.047 22.1501 176.587 23.8001 176.587 25.9201ZM172.567 26.2501C172.567 24.9501 172.287 23.9601 171.727 23.2801C171.167 22.6001 170.427 22.2601 169.507 22.2601C168.467 22.2601 167.657 22.6401 167.077 23.4001C166.517 24.1601 166.237 25.0401 166.237 26.0401V26.3701C166.237 27.4701 166.507 28.4001 167.047 29.1601C167.607 29.9001 168.397 30.2701 169.417 30.2701C170.297 30.2701 171.037 29.9501 171.637 29.3101C172.257 28.6501 172.567 27.6301 172.567 26.2501Z" fill="#0C111D"/>
<path d="M189.661 28.8601C189.661 30.3601 189.061 31.4801 187.861 32.2201C186.681 32.9401 185.141 33.3001 183.241 33.3001C182.261 33.3001 181.271 33.2001 180.271 33.0001C179.291 32.7801 178.351 32.4401 177.451 31.9801L177.991 28.2001L180.991 28.5301V30.2101C181.351 30.3301 181.731 30.4101 182.131 30.4501C182.531 30.4701 182.831 30.4801 183.031 30.4801C183.771 30.4801 184.411 30.3601 184.951 30.1201C185.491 29.8801 185.761 29.5201 185.761 29.0401C185.761 28.4601 185.351 28.0801 184.531 27.9001C183.711 27.7201 182.761 27.5401 181.681 27.3601C180.601 27.1801 179.651 26.8101 178.831 26.2501C178.011 25.6901 177.601 24.7401 177.601 23.4001C177.601 21.7401 178.241 20.6301 179.521 20.0701C180.821 19.4901 182.161 19.2001 183.541 19.2001C185.341 19.2001 187.031 19.6101 188.611 20.4301L188.941 23.8801L185.941 24.2101L185.701 22.3201C185.041 22.1001 184.331 21.9901 183.571 21.9901C183.071 21.9901 182.641 22.1001 182.281 22.3201C181.941 22.5201 181.771 22.8401 181.771 23.2801C181.771 23.8601 182.161 24.2501 182.941 24.4501C183.741 24.6301 184.661 24.8101 185.701 24.9901C186.761 25.1701 187.681 25.5401 188.461 26.1001C189.261 26.6401 189.661 27.5601 189.661 28.8601Z" fill="#0C111D"/>
</svg>
