<svg width="158" height="48" viewBox="0 0 158 48" fill="none" xmlns="http://www.w3.org/2000/svg">
<rect x="1.09961" y="19.2002" width="9.59998" height="9.59999" fill="#099250"/>
<rect x="31.9004" y="28.7998" width="9.6" height="9.59999" transform="rotate(180 31.9004 28.7998)" fill="#099250"/>
<path opacity="0.2" d="M10.6992 19.1996L22.2992 9.59961V19.1996L10.6992 28.7996V19.1996Z" fill="#099250"/>
<path opacity="0.5" d="M22.2988 28.8004L10.6988 38.4004L10.6988 28.8004L22.2988 19.2004L22.2988 28.8004Z" fill="#099250"/>
<path opacity="0.6" d="M1.09961 19.2L22.2996 0V9.59999L10.6996 19.2H1.09961Z" fill="#099250"/>
<path opacity="0.7" d="M31.9004 28.8L10.7004 48L10.7004 38.4L22.3004 28.8L31.9004 28.8Z" fill="#099250"/>
<path d="M50.6271 33.243C47.9631 33.243 45.9381 32.649 44.5521 31.461C43.1841 30.273 42.5001 28.725 42.5001 26.817H46.7661C46.8021 27.789 47.1261 28.572 47.7381 29.166C48.3681 29.742 49.3851 30.03 50.7891 30.03C51.8691 30.03 52.7331 29.832 53.3811 29.436C54.0291 29.04 54.3531 28.455 54.3531 27.681C54.3531 27.051 54.2181 26.565 53.9481 26.223C53.6781 25.863 53.2101 25.584 52.5441 25.386C51.8781 25.188 50.9511 24.99 49.7631 24.792C47.4951 24.432 45.7851 23.82 44.6331 22.956C43.4811 22.074 42.9051 20.778 42.9051 19.068C42.9051 17.214 43.5891 15.756 44.9571 14.694C46.3251 13.614 48.2061 13.074 50.6001 13.074C52.1481 13.074 53.4801 13.317 54.5961 13.803C55.7121 14.289 56.5761 14.973 57.1881 15.855C57.8181 16.737 58.1331 17.763 58.1331 18.933H53.8941C53.8581 17.979 53.5071 17.295 52.8411 16.881C52.1931 16.467 51.4011 16.26 50.4651 16.26C49.4751 16.26 48.6921 16.467 48.1161 16.881C47.5581 17.277 47.2791 17.826 47.2791 18.528C47.2791 19.14 47.4411 19.599 47.7651 19.905C48.0891 20.211 48.5931 20.445 49.2771 20.607C49.9791 20.769 50.8971 20.949 52.0311 21.147C52.8591 21.273 53.6691 21.444 54.4611 21.66C55.2531 21.876 55.9641 22.2 56.5941 22.632C57.2421 23.046 57.7551 23.631 58.1331 24.387C58.5291 25.125 58.7271 26.088 58.7271 27.276C58.7271 29.04 58.0431 30.48 56.6751 31.596C55.3251 32.694 53.3091 33.243 50.6271 33.243Z" fill="#0C111D"/>
<path d="M60.9101 16.665V13.317H64.8791V16.665H60.9101ZM60.9101 33V18.528H64.8791V33H60.9101Z" fill="#0C111D"/>
<path d="M73.4524 33.27C71.3464 33.27 69.7174 32.829 68.5654 31.947C67.4314 31.047 66.8734 29.877 66.8914 28.437H70.7794C70.7974 29.211 71.0674 29.769 71.5894 30.111C72.1294 30.435 72.7864 30.597 73.5604 30.597C74.3704 30.597 74.9824 30.462 75.3964 30.192C75.8104 29.904 76.0174 29.517 76.0174 29.031C76.0174 28.365 75.7744 27.933 75.2884 27.735C74.8204 27.537 74.0734 27.366 73.0474 27.222C71.9854 27.078 71.0134 26.871 70.1314 26.601C69.2494 26.313 68.5474 25.881 68.0254 25.305C67.5214 24.729 67.2694 23.91 67.2694 22.848C67.2694 21.318 67.8454 20.175 68.9974 19.419C70.1674 18.645 71.6974 18.258 73.5874 18.258C75.4414 18.258 76.9174 18.663 78.0154 19.473C79.1134 20.265 79.6804 21.381 79.7164 22.821H75.8284C75.8284 22.209 75.6124 21.741 75.1804 21.417C74.7664 21.093 74.1994 20.931 73.4794 20.931C72.7414 20.931 72.1834 21.075 71.8054 21.363C71.4274 21.633 71.2384 21.993 71.2384 22.443C71.2384 22.983 71.4814 23.361 71.9674 23.577C72.4534 23.793 73.2274 23.973 74.2894 24.117C75.0454 24.225 75.7654 24.36 76.4494 24.522C77.1334 24.666 77.7364 24.9 78.2584 25.224C78.7984 25.53 79.2214 25.962 79.5274 26.52C79.8514 27.06 80.0134 27.771 80.0134 28.653C80.0134 30.237 79.4284 31.407 78.2584 32.163C77.0884 32.901 75.4864 33.27 73.4524 33.27Z" fill="#0C111D"/>
<path d="M81.0719 37.509V34.242H82.7459C83.3399 34.242 83.8079 34.116 84.1499 33.864C84.5099 33.63 84.7799 33.261 84.9599 32.757L85.3109 31.866L79.7759 18.528H84.1229L86.7689 26.277L87.2279 27.816H87.3629L87.7949 26.277L90.2789 18.528H94.5179L88.8749 33.675C88.3169 35.187 87.5879 36.204 86.6879 36.726C85.8059 37.248 84.7439 37.509 83.5019 37.509H81.0719Z" fill="#0C111D"/>
<path d="M95.624 37.509V18.528H99.458L99.593 21.039H99.809C100.151 20.193 100.718 19.518 101.51 19.014C102.32 18.51 103.283 18.258 104.399 18.258C106.127 18.258 107.522 18.888 108.584 20.148C109.664 21.39 110.204 23.262 110.204 25.764C110.204 28.248 109.664 30.12 108.584 31.38C107.522 32.64 106.127 33.27 104.399 33.27C103.283 33.27 102.32 33.018 101.51 32.514C100.718 31.992 100.151 31.317 99.809 30.489H99.593V37.509H95.624ZM102.914 30.057C103.886 30.057 104.66 29.715 105.236 29.031C105.83 28.329 106.127 27.24 106.127 25.764C106.127 24.288 105.83 23.208 105.236 22.524C104.66 21.822 103.886 21.471 102.914 21.471C102.176 21.471 101.564 21.642 101.078 21.984C100.592 22.326 100.232 22.776 99.998 23.334C99.764 23.874 99.647 24.45 99.647 25.062V26.466C99.647 27.078 99.764 27.663 99.998 28.221C100.232 28.761 100.592 29.202 101.078 29.544C101.564 29.886 102.176 30.057 102.914 30.057Z" fill="#0C111D"/>
<path d="M112.17 33V13.317H116.139V21.147H116.301C116.697 20.193 117.309 19.473 118.137 18.987C118.965 18.501 119.892 18.258 120.918 18.258C121.89 18.258 122.754 18.456 123.51 18.852C124.284 19.248 124.896 19.887 125.346 20.769C125.796 21.633 126.021 22.794 126.021 24.252V33H122.052V25.116C122.052 23.892 121.836 22.983 121.404 22.389C120.972 21.795 120.279 21.498 119.325 21.498C118.299 21.498 117.507 21.849 116.949 22.551C116.409 23.235 116.139 24.036 116.139 24.954V33H112.17Z" fill="#0C111D"/>
<path d="M133.501 33.243C131.827 33.243 130.549 32.757 129.667 31.785C128.785 30.813 128.344 29.4 128.344 27.546V18.528H132.313V26.493C132.313 27.645 132.52 28.527 132.934 29.139C133.366 29.733 134.077 30.03 135.067 30.03C136.075 30.03 136.849 29.688 137.389 29.004C137.947 28.302 138.226 27.474 138.226 26.52V18.528H142.195V33H138.388L138.226 30.354H138.037C137.695 31.29 137.11 32.01 136.282 32.514C135.472 33 134.545 33.243 133.501 33.243Z" fill="#0C111D"/>
<path d="M150.724 33.27C148.618 33.27 146.989 32.829 145.837 31.947C144.703 31.047 144.145 29.877 144.163 28.437H148.051C148.069 29.211 148.339 29.769 148.861 30.111C149.401 30.435 150.058 30.597 150.832 30.597C151.642 30.597 152.254 30.462 152.668 30.192C153.082 29.904 153.289 29.517 153.289 29.031C153.289 28.365 153.046 27.933 152.56 27.735C152.092 27.537 151.345 27.366 150.319 27.222C149.257 27.078 148.285 26.871 147.403 26.601C146.521 26.313 145.819 25.881 145.297 25.305C144.793 24.729 144.541 23.91 144.541 22.848C144.541 21.318 145.117 20.175 146.269 19.419C147.439 18.645 148.969 18.258 150.859 18.258C152.713 18.258 154.189 18.663 155.287 19.473C156.385 20.265 156.952 21.381 156.988 22.821H153.1C153.1 22.209 152.884 21.741 152.452 21.417C152.038 21.093 151.471 20.931 150.751 20.931C150.013 20.931 149.455 21.075 149.077 21.363C148.699 21.633 148.51 21.993 148.51 22.443C148.51 22.983 148.753 23.361 149.239 23.577C149.725 23.793 150.499 23.973 151.561 24.117C152.317 24.225 153.037 24.36 153.721 24.522C154.405 24.666 155.008 24.9 155.53 25.224C156.07 25.53 156.493 25.962 156.799 26.52C157.123 27.06 157.285 27.771 157.285 28.653C157.285 30.237 156.7 31.407 155.53 32.163C154.36 32.901 152.758 33.27 150.724 33.27Z" fill="#0C111D"/>
</svg>
