<svg width="199" height="48" viewBox="0 0 199 48" fill="none" xmlns="http://www.w3.org/2000/svg">
<path fill-rule="evenodd" clip-rule="evenodd" d="M27.1797 2.01388C27.6267 1.78062 28.1611 1.7876 28.6019 2.03247L38.7284 7.65748C39.2046 7.92204 39.5 8.42403 39.5 8.96885L39.4993 20.2184C39.4993 20.7772 39.1886 21.2897 38.6932 21.5482L12.8196 35.0478C12.3725 35.2811 11.8381 35.2741 11.3973 35.0291L1.27345 29.4043C0.797359 29.1397 0.502058 28.638 0.501963 28.0933L0.5 16.8436C0.499903 16.2847 0.810589 15.7721 1.30614 15.5135L27.1797 2.01388ZM3.50016 17.7526L3.50153 25.6188L26.3753 13.6842L26.374 5.81805L3.50016 17.7526ZM29.374 5.89309L29.3753 13.7108L36.4995 17.669L36.4999 9.85139L29.374 5.89309ZM34.8361 20.1768L27.8531 16.297L5.16512 28.1346L12.1481 32.0144L34.8361 20.1768Z" fill="#1570EF"/>
<path opacity="0.5" fill-rule="evenodd" clip-rule="evenodd" d="M12.8203 46.2986C12.3733 46.5319 11.8389 46.5249 11.3981 46.28L1.27162 40.655C0.79535 40.3905 0.49997 39.8885 0.500004 39.3436L0.500704 28.0941C0.500738 27.5353 0.811403 27.0228 1.30684 26.7643L27.1804 13.2647C27.6275 13.0314 28.1619 13.0384 28.6027 13.2834L38.7266 18.9082C39.2026 19.1728 39.4979 19.6745 39.498 20.2192L39.5 31.4689C39.5001 32.0278 39.1894 32.5404 38.6939 32.799L12.8203 46.2986ZM36.4998 30.5599L36.4985 22.6937L13.6247 34.6282L13.626 42.4944L36.4998 30.5599ZM10.626 42.4194L10.6247 34.6017L3.50055 30.6435L3.50006 38.4611L10.626 42.4194ZM5.16386 28.1357L12.1469 32.0155L34.8349 20.1779L27.8519 16.2981L5.16386 28.1357Z" fill="#1570EF"/>
<path d="M65.565 26.9791C65.565 30.6781 62.595 33.2701 57.735 33.2701C52.848 33.2701 49.797 30.6511 49.5 26.5471H53.658C53.766 28.6801 55.143 30.0571 57.654 30.0571C59.733 30.0571 61.218 29.1391 61.218 27.5731C61.218 26.3581 60.273 25.6291 58.626 25.3051L55.44 24.6841C52.497 24.1171 50.229 22.5241 50.229 19.3111C50.229 15.8551 53.28 13.3711 57.465 13.3711C61.812 13.3711 64.998 15.9091 65.268 19.9591H61.11C60.975 17.9341 59.571 16.5571 57.519 16.5571C55.521 16.5571 54.387 17.6911 54.387 19.0411C54.387 20.3641 55.602 20.9311 57.006 21.2011L60.327 21.8761C63.729 22.5511 65.565 24.1171 65.565 26.9791Z" fill="#0C111D"/>
<path d="M76.2568 29.3551V32.6221C75.3388 33.0811 74.4748 33.2701 73.3678 33.2701C70.3978 33.2701 68.5348 31.5691 68.5348 28.3291V21.7951H65.6188V18.5821H68.5348V14.3161H72.2608V18.5821H76.3918V21.7951H72.2608V27.4651C72.2608 29.1391 73.0168 29.8141 74.3668 29.8141C75.0688 29.8141 75.7168 29.6521 76.2568 29.3551Z" fill="#0C111D"/>
<path d="M86.1894 33.0001V31.2181C85.2444 32.5681 83.8134 33.2701 81.8424 33.2701C78.8454 33.2701 76.8474 31.5151 76.8474 28.8151C76.8474 26.0071 79.1154 24.4951 83.3274 24.4951C84.1374 24.4951 84.8394 24.5491 85.7304 24.6571V23.7931C85.7304 22.1731 84.8124 21.2281 83.2464 21.2281C81.6264 21.2281 80.6544 22.1731 80.5194 23.7931H77.1444C77.3604 20.4721 79.7634 18.3121 83.2464 18.3121C87.0264 18.3121 89.2404 20.3911 89.2404 23.9281V33.0001H86.1894ZM80.3844 28.7071C80.3844 29.9221 81.2484 30.6781 82.6524 30.6781C84.5694 30.6781 85.7304 29.6251 85.7304 27.9511V26.9251C84.8394 26.7901 84.2184 26.7361 83.5704 26.7361C81.4374 26.7361 80.3844 27.4111 80.3844 28.7071Z" fill="#0C111D"/>
<path d="M97.4695 33.2701C93.3115 33.2701 90.4495 30.1921 90.4495 25.7911C90.4495 21.4711 93.4195 18.3121 97.4695 18.3121C101.223 18.3121 104.004 20.8501 104.463 24.7381H100.521C100.332 22.8211 99.1705 21.6331 97.4695 21.6331C95.5255 21.6331 94.2835 23.2261 94.2835 25.7911C94.2835 28.3831 95.4985 29.9491 97.4695 29.9491C99.1975 29.9491 100.305 28.8151 100.521 26.8441H104.463C104.031 30.8131 101.331 33.2701 97.4695 33.2701Z" fill="#0C111D"/>
<path d="M109.545 33.0001H105.792V13.6141H109.545V24.6841L114.81 18.5821H119.13L113.163 25.4941L119.832 33.0001H115.053L109.545 26.3041V33.0001Z" fill="#0C111D"/>
<path d="M134.038 25.7911C134.038 21.5251 136.549 18.3121 140.437 18.3121C142.165 18.3121 143.623 19.0681 144.703 20.4451V13.6141H148.429V33.0001H145V30.9211C143.866 32.4331 142.3 33.2701 140.437 33.2701C136.549 33.2701 134.038 30.0031 134.038 25.7911ZM137.899 25.7911C137.899 28.4911 139.438 29.9221 141.274 29.9221C143.137 29.9221 144.676 28.4641 144.676 25.7371C144.676 23.0101 143.11 21.6331 141.274 21.6331C139.438 21.6331 137.899 23.0371 137.899 25.7911Z" fill="#0C111D"/>
<path d="M168.113 33.0001H155.585V13.6141H159.689V29.3011H168.113V33.0001Z" fill="#0C111D"/>
<path d="M178.113 33.0001V31.2181C177.168 32.5681 175.737 33.2701 173.766 33.2701C170.769 33.2701 168.771 31.5151 168.771 28.8151C168.771 26.0071 171.039 24.4951 175.251 24.4951C176.061 24.4951 176.763 24.5491 177.654 24.6571V23.7931C177.654 22.1731 176.736 21.2281 175.17 21.2281C173.55 21.2281 172.578 22.1731 172.443 23.7931H169.068C169.284 20.4721 171.687 18.3121 175.17 18.3121C178.95 18.3121 181.164 20.3911 181.164 23.9281V33.0001H178.113ZM172.308 28.7071C172.308 29.9221 173.172 30.6781 174.576 30.6781C176.493 30.6781 177.654 29.6251 177.654 27.9511V26.9251C176.763 26.7901 176.142 26.7361 175.494 26.7361C173.361 26.7361 172.308 27.4111 172.308 28.7071Z" fill="#0C111D"/>
<path d="M197.709 25.7911C197.709 30.0031 195.198 33.2701 191.31 33.2701C189.447 33.2701 187.881 32.4331 186.774 30.9211V33.0001H183.318V13.6141H187.071V20.4451C188.124 19.0411 189.582 18.3121 191.31 18.3121C195.198 18.3121 197.709 21.5251 197.709 25.7911ZM193.848 25.7911C193.848 23.0371 192.309 21.6331 190.473 21.6331C188.664 21.6331 187.098 23.0101 187.098 25.7371C187.098 28.4641 188.61 29.9221 190.473 29.9221C192.309 29.9221 193.848 28.4911 193.848 25.7911Z" fill="#0C111D"/>
<path d="M126.69 33.2431C130.632 33.2431 133.413 30.9211 133.44 27.6271H129.795C129.687 29.2741 128.499 30.2731 126.636 30.2731C124.692 30.2731 123.558 29.3011 123.558 27.6811C123.558 26.0881 124.881 25.1431 127.122 25.1431H129.093V22.1731H127.338C125.502 22.1731 124.395 21.2551 124.395 19.7701C124.395 18.3391 125.34 17.4481 126.906 17.4481C128.445 17.4481 129.417 18.4201 129.444 20.0131H133.089C133.062 16.8541 130.308 14.4781 126.717 14.4781C122.883 14.4781 120.534 16.5571 120.534 19.5001C120.534 21.1741 121.506 22.4971 123.261 23.4151C120.993 24.1441 119.697 25.6021 119.697 27.5731C119.697 30.9481 122.505 33.2431 126.69 33.2431Z" fill="#0C111D"/>
</svg>
