<svg width="165" height="40" viewBox="0 0 165 40" fill="none" xmlns="http://www.w3.org/2000/svg">
<path opacity="0.4" d="M38.5833 17.6979C36.851 19.4302 34.0423 19.4302 32.31 17.6979C30.5777 15.9656 30.5777 13.1569 32.31 11.4246C34.0423 9.69229 36.851 9.69229 38.5833 11.4246C40.3156 13.1569 40.3156 15.9656 38.5833 17.6979Z" fill="#155EEF"/>
<path opacity="0.6" d="M38.5795 17.6963C36.8472 19.4286 34.0385 19.4286 32.3062 17.6963L26.111 11.501C24.3786 9.7687 21.57 9.7687 19.8377 11.501C18.1054 13.2333 18.1054 16.042 19.8377 17.7743L26.0329 23.9696C27.7652 25.7019 30.5739 25.7019 32.3062 23.9696L38.5795 17.6963Z" fill="#155EEF"/>
<path d="M32.3059 23.971C30.5736 25.7033 27.765 25.7033 26.0326 23.971L14.0088 11.9472C11.6991 9.6374 7.95419 9.6374 5.64443 11.9472L0.416687 17.1749C2.14901 15.4426 4.95766 15.4426 6.68998 17.1749L19.7593 30.2443C21.4917 31.9766 24.3003 31.9766 26.0326 30.2443L32.3059 23.971Z" fill="#155EEF"/>
<path d="M60.7183 27.4998L57.7033 16.2048L54.6883 27.4998H51.2233L47.0833 11.3448H50.4133L53.0233 22.3023L55.9933 11.3448H59.4808L62.3608 22.3473L64.9933 11.3448H68.3458L64.1833 27.4998H60.7183Z" fill="#0C111D"/>
<path d="M72.7271 12.6948C72.7271 13.7523 71.8721 14.5398 70.6346 14.5398C69.4196 14.5398 68.5646 13.7523 68.5646 12.6948C68.5646 11.5923 69.4196 10.8048 70.6346 10.8048C71.8721 10.8048 72.7271 11.5923 72.7271 12.6948ZM72.2321 27.4998H69.1046V15.4848H72.2321V27.4998Z" fill="#0C111D"/>
<path d="M77.2653 27.4998H74.1153V11.3448H77.2653V27.4998Z" fill="#0C111D"/>
<path d="M78.3823 21.4923C78.3823 17.9373 80.4748 15.2598 83.7148 15.2598C85.1548 15.2598 86.3698 15.8898 87.2698 17.0373V11.3448H90.3748V27.4998H87.5173V25.7673C86.5723 27.0273 85.2673 27.7248 83.7148 27.7248C80.4748 27.7248 78.3823 25.0023 78.3823 21.4923ZM81.5998 21.4923C81.5998 23.7423 82.8823 24.9348 84.4123 24.9348C85.9648 24.9348 87.2473 23.7198 87.2473 21.4473C87.2473 19.1748 85.9423 18.0273 84.4123 18.0273C82.8823 18.0273 81.5998 19.1973 81.5998 21.4923Z" fill="#0C111D"/>
<path d="M97.3289 27.7248C93.8639 27.7248 91.4789 25.1598 91.4789 21.4923C91.4789 17.8923 93.9539 15.2598 97.3289 15.2598C100.456 15.2598 102.774 17.3748 103.156 20.6148H99.8714C99.7139 19.0173 98.7464 18.0273 97.3289 18.0273C95.7089 18.0273 94.6739 19.3548 94.6739 21.4923C94.6739 23.6523 95.6864 24.9573 97.3289 24.9573C98.7689 24.9573 99.6914 24.0123 99.8714 22.3698H103.156C102.796 25.6773 100.546 27.7248 97.3289 27.7248Z" fill="#0C111D"/>
<path d="M107.392 21.6723V27.4998H104.264V15.4848H107.144V17.8023C108.022 16.2723 109.889 15.3498 111.824 15.3498V18.5898C109.169 18.3873 107.392 19.0173 107.392 21.6723Z" fill="#0C111D"/>
<path d="M119.704 27.4998V26.0148C118.916 27.1398 117.724 27.7248 116.081 27.7248C113.584 27.7248 111.919 26.2623 111.919 24.0123C111.919 21.6723 113.809 20.4123 117.319 20.4123C117.994 20.4123 118.579 20.4573 119.321 20.5473V19.8273C119.321 18.4773 118.556 17.6898 117.251 17.6898C115.901 17.6898 115.091 18.4773 114.979 19.8273H112.166C112.346 17.0598 114.349 15.2598 117.251 15.2598C120.401 15.2598 122.246 16.9923 122.246 19.9398V27.4998H119.704ZM114.866 23.9223C114.866 24.9348 115.586 25.5648 116.756 25.5648C118.354 25.5648 119.321 24.6873 119.321 23.2923V22.4373C118.579 22.3248 118.061 22.2798 117.521 22.2798C115.744 22.2798 114.866 22.8423 114.866 23.9223Z" fill="#0C111D"/>
<path d="M128.118 27.4998H125.013V18.1623H122.583V15.4848H125.013V14.8323C125.013 12.4473 126.296 11.0973 128.793 11.0973C129.558 11.0973 130.211 11.2323 130.728 11.4573V13.9323C130.391 13.7973 129.941 13.7298 129.536 13.7298C128.681 13.7298 128.118 14.0673 128.118 14.8998V15.4848H131.246V18.1623H128.118V27.4998Z" fill="#0C111D"/>
<path d="M140.06 24.4623V27.1848C139.295 27.5673 138.575 27.7248 137.652 27.7248C135.177 27.7248 133.625 26.3073 133.625 23.6073V18.1623H131.195V15.4848H133.625V11.9298H136.73V15.4848H140.172V18.1623H136.73V22.8873C136.73 24.2823 137.36 24.8448 138.485 24.8448C139.07 24.8448 139.61 24.7098 140.06 24.4623Z" fill="#0C111D"/>
<path d="M146.138 27.7023C142.538 27.7023 140.131 25.2048 140.131 21.4473C140.131 17.8698 142.628 15.2598 146.093 15.2598C149.896 15.2598 152.416 18.3423 151.853 22.2573H143.326C143.528 24.2148 144.473 25.2948 146.071 25.2948C147.443 25.2948 148.366 24.6198 148.726 23.4273H151.831C151.156 26.1498 149.063 27.7023 146.138 27.7023ZM146.026 17.5548C144.563 17.5548 143.641 18.4998 143.371 20.2773H148.546C148.456 18.6123 147.511 17.5548 146.026 17.5548Z" fill="#0C111D"/>
<path d="M152.041 21.4923C152.041 17.9373 154.133 15.2598 157.373 15.2598C158.813 15.2598 160.028 15.8898 160.928 17.0373V11.3448H164.033V27.4998H161.176V25.7673C160.231 27.0273 158.926 27.7248 157.373 27.7248C154.133 27.7248 152.041 25.0023 152.041 21.4923ZM155.258 21.4923C155.258 23.7423 156.541 24.9348 158.071 24.9348C159.623 24.9348 160.906 23.7198 160.906 21.4473C160.906 19.1748 159.601 18.0273 158.071 18.0273C156.541 18.0273 155.258 19.1973 155.258 21.4923Z" fill="#0C111D"/>
</svg>
