<svg width="202" height="48" viewBox="0 0 202 48" fill="none" xmlns="http://www.w3.org/2000/svg">
<path fill-rule="evenodd" clip-rule="evenodd" d="M18.8279 33.2066C19.657 32.2118 20.8851 31.6365 22.1802 31.6365H39.7727C44.5927 31.6365 48.5 27.7292 48.5 22.9093V18.5456C48.5 13.7257 44.5927 9.81836 39.7727 9.81836H36.362C35.067 9.81836 33.8388 10.3936 33.0098 11.3885L30.1721 14.7937C29.343 15.7886 28.1149 16.3638 26.8198 16.3638H9.22727C4.40733 16.3638 0.5 20.2711 0.5 25.0911V29.4547C0.5 34.2747 4.40733 38.182 9.22727 38.182H12.638C13.933 38.182 15.1612 37.6068 15.9902 36.6119L18.8279 33.2066ZM41.9545 18.5456C41.9545 17.3406 40.9777 16.3638 39.7727 16.3638H33.0893C31.7942 16.3638 30.5661 16.939 29.737 17.9339L26.8993 21.3392C26.0703 22.334 24.8421 22.9093 23.5471 22.9093H9.22727C8.02229 22.9093 7.04545 23.8861 7.04545 25.0911V29.4547C7.04545 30.6597 8.02229 31.6365 9.22727 31.6365H15.9107C17.2058 31.6365 18.4339 31.0613 19.263 30.0664L22.1007 26.6612C22.9297 25.6663 24.1579 25.0911 25.4529 25.0911H39.7727C40.9777 25.0911 41.9545 24.1143 41.9545 22.9093V18.5456Z" fill="#0C111D"/>
<path d="M75.645 33.0005L72.648 22.4435L72.216 20.4995L71.757 22.4435L68.787 33.0005H63.927L58.5 14.6405H63.117L66.06 26.6825L66.546 28.8695L67.032 26.6825L70.434 14.6405H74.214L77.589 26.6825L78.075 28.8695L78.561 26.6825L81.504 14.6405H85.878L80.451 33.0005H75.645Z" fill="#0C111D"/>
<path d="M90.1634 23.2805H86.0324C86.4644 20.0135 88.9754 18.0155 92.7014 18.0155C96.8594 18.0155 99.0194 20.4455 99.0194 23.8205V29.3825C99.0194 31.2725 99.1814 32.2445 99.4244 33.0005H95.1584C95.0234 32.5145 94.9424 31.8935 94.9154 31.1915C93.7814 32.7575 92.0534 33.4325 90.3254 33.4325C87.5714 33.4325 85.5194 32.0285 85.5194 29.2475C85.5194 27.2765 86.6534 25.7645 88.9484 24.9545C90.8384 24.3335 92.6474 24.1445 94.8884 24.1175V23.7935C94.8884 22.2005 94.1054 21.3635 92.5124 21.3635C91.1084 21.3635 90.3524 22.1465 90.1634 23.2805ZM89.6504 28.9775C89.6504 29.9495 90.3794 30.5705 91.5944 30.5705C93.4304 30.5705 94.8884 29.0855 94.8884 27.0875V26.5205C90.7034 26.6015 89.6504 27.6275 89.6504 28.9775Z" fill="#0C111D"/>
<path d="M101.42 33.0005V18.4745H105.551V20.4995C106.469 18.7715 107.873 18.0155 109.358 18.0155C109.952 18.0155 110.492 18.1775 110.789 18.4745V21.9575C110.303 21.8495 109.79 21.7955 109.142 21.7955C106.658 21.7955 105.551 23.1995 105.551 25.4945V33.0005H101.42Z" fill="#0C111D"/>
<path d="M116.033 38.9675H111.902V18.4745H116.033V19.9865C116.924 18.7175 118.166 18.0155 119.678 18.0155C123.431 18.0155 125.78 20.9585 125.78 25.7105C125.78 30.6515 123.377 33.4325 119.678 33.4325C118.139 33.4325 116.897 32.7845 116.033 31.5425V38.9675ZM118.814 21.3635C116.978 21.3635 116.033 22.9025 116.033 25.7105C116.033 28.5185 117.005 30.0845 118.814 30.0845C120.596 30.0845 121.541 28.5455 121.541 25.7105C121.541 22.9025 120.569 21.3635 118.814 21.3635Z" fill="#0C111D"/>
<path d="M131.01 22.4975C131.01 25.3595 140.001 22.8485 140.001 28.5995C140.001 31.4615 137.355 33.4325 133.575 33.4325C129.903 33.4325 127.257 31.8125 126.717 28.2215H130.848C131.037 29.5715 132.144 30.3005 133.683 30.3005C135.141 30.3005 135.87 29.7335 135.87 28.8425C135.87 26.0345 127.068 28.5455 127.068 22.7135C127.068 20.2835 129.039 18.0155 132.927 18.0155C136.41 18.0155 139.056 19.6085 139.461 23.2805H135.357C135.114 21.7955 134.25 21.1745 132.792 21.1745C131.712 21.1745 131.01 21.7145 131.01 22.4975Z" fill="#0C111D"/>
<path d="M145.67 38.9675H141.539V18.4745H145.67V19.9865C146.561 18.7175 147.803 18.0155 149.315 18.0155C153.068 18.0155 155.417 20.9585 155.417 25.7105C155.417 30.6515 153.014 33.4325 149.315 33.4325C147.776 33.4325 146.534 32.7845 145.67 31.5425V38.9675ZM148.451 21.3635C146.615 21.3635 145.67 22.9025 145.67 25.7105C145.67 28.5185 146.642 30.0845 148.451 30.0845C150.233 30.0845 151.178 28.5455 151.178 25.7105C151.178 22.9025 150.206 21.3635 148.451 21.3635Z" fill="#0C111D"/>
<path d="M170.746 28.2215C169.99 31.5695 167.29 33.4325 163.726 33.4325C159.217 33.4325 156.436 30.5165 156.436 25.7375C156.436 20.7965 159.244 18.0155 163.564 18.0155C167.911 18.0155 170.638 20.9045 170.638 25.6565V26.5745H160.648C160.864 28.8965 161.944 30.1385 163.726 30.1385C165.076 30.1385 165.994 29.5445 166.426 28.2215H170.746ZM163.564 21.3095C162.025 21.3095 161.053 22.3085 160.729 24.1985H166.372C166.048 22.3085 165.076 21.3095 163.564 21.3095Z" fill="#0C111D"/>
<path d="M186.053 28.2215C185.297 31.5695 182.597 33.4325 179.033 33.4325C174.524 33.4325 171.743 30.5165 171.743 25.7375C171.743 20.7965 174.551 18.0155 178.871 18.0155C183.218 18.0155 185.945 20.9045 185.945 25.6565V26.5745H175.955C176.171 28.8965 177.251 30.1385 179.033 30.1385C180.383 30.1385 181.301 29.5445 181.733 28.2215H186.053ZM178.871 21.3095C177.332 21.3095 176.36 22.3085 176.036 24.1985H181.679C181.355 22.3085 180.383 21.3095 178.871 21.3095Z" fill="#0C111D"/>
<path d="M193.124 33.4325C189.398 33.4325 187.049 30.5165 187.049 25.7375C187.049 20.7965 189.452 18.0155 193.124 18.0155C194.663 18.0155 195.905 18.6635 196.796 19.9055V13.5605H200.927V33.0005H196.796V31.4615C195.905 32.7305 194.636 33.4325 193.124 33.4325ZM194.015 30.0845C195.851 30.0845 196.796 28.5725 196.796 25.7375C196.796 22.9295 195.824 21.3635 194.015 21.3635C192.233 21.3635 191.288 22.9025 191.288 25.7375C191.288 28.5455 192.26 30.0845 194.015 30.0845Z" fill="#0C111D"/>
</svg>
